<svg fill="none" height="64" viewBox="0 0 70 64" width="70" xmlns="http://www.w3.org/2000/svg">
<path class="group-dark-blue" d="M6.5223 26.3564C5.47631 26.3564 4.45383 26.6667 3.58429 27.2481C2.71475 27.8295 2.03724 28.6558 1.63752 29.6224C1.2378 30.589 1.13384 31.6525 1.3388 32.6782C1.54377 33.7039 2.04843 34.6457 2.78892 35.3845C3.52942 36.1233 4.47244 36.6257 5.49863 36.8283C6.52482 37.0309 7.58805 36.9244 8.55372 36.5225C9.51939 36.1205 10.3441 35.4411 10.9234 34.5702C11.5028 33.6993 11.8107 32.6761 11.8083 31.6301C11.8083 30.9365 11.6715 30.2497 11.4057 29.6091C11.1399 28.9684 10.7503 28.3865 10.2593 27.8967C9.76831 27.4068 9.18549 27.0186 8.54423 26.7543C7.90298 26.49 7.21589 26.3548 6.5223 26.3564ZM6.5223 34.1683C6.02028 34.1683 5.52954 34.0195 5.11212 33.7406C4.69471 33.4617 4.36937 33.0652 4.17726 32.6014C3.98514 32.1376 3.93488 31.6273 4.03282 31.1349C4.13076 30.6425 4.3725 30.1902 4.72748 29.8353C5.08247 29.4803 5.53474 29.2385 6.02711 29.1406C6.51949 29.0426 7.02985 29.0929 7.49365 29.285C7.95746 29.4771 8.35388 29.8025 8.63279 30.2199C8.9117 30.6373 9.06056 31.1281 9.06056 31.6301C9.0622 31.9639 8.99766 32.2947 8.87068 32.6034C8.74369 32.912 8.55679 33.1925 8.32076 33.4285C8.08474 33.6646 7.80428 33.8515 7.49558 33.9784C7.18689 34.1054 6.85609 34.17 6.5223 34.1683Z" fill="#FFF"></path>
<path class="group-brand-blue" d="M19.4846 13.1353C18.4429 13.1402 17.4258 13.4529 16.5611 14.034C15.6965 14.6151 15.0228 15.4387 14.6247 16.4014C14.2267 17.3642 14.122 18.423 14.3237 19.4451C14.5255 20.4671 15.0248 21.4068 15.7589 22.146C16.493 22.8852 17.4292 23.391 18.4498 23.5999C19.4704 23.8087 20.53 23.7114 21.4955 23.32C22.4609 22.9286 23.2892 22.2607 23.8763 21.4001C24.4634 20.5395 24.7831 19.5246 24.7953 18.4829C24.8018 17.7819 24.6691 17.0866 24.405 16.4373C24.1409 15.788 23.7506 15.1975 23.2566 14.7001C22.7627 14.2027 22.1749 13.8083 21.5274 13.5397C20.88 13.2711 20.1856 13.1336 19.4846 13.1353V13.1353ZM19.4846 20.9472C18.9826 20.9595 18.4883 20.8218 18.0649 20.5518C17.6415 20.2818 17.3082 19.8917 17.1075 19.4314C16.9068 18.971 16.8479 18.4613 16.9383 17.9673C17.0287 17.4734 17.2643 17.0175 17.615 16.6581C17.9657 16.2986 18.4155 16.0519 18.9071 15.9493C19.3987 15.8468 19.9097 15.8931 20.3749 16.0823C20.84 16.2715 21.2382 16.5951 21.5186 17.0117C21.799 17.4284 21.9488 17.9191 21.949 18.4213C21.9491 19.0806 21.6915 19.714 21.231 20.1859C20.7706 20.6579 20.1438 20.9311 19.4846 20.9472V20.9472Z" fill="#FFF"></path>
<path class="group-dark-blue" d="M6.2883 0.000319543C5.24231 -0.00211867 4.21911 0.305826 3.34822 0.885173C2.47732 1.46452 1.79788 2.28922 1.39591 3.2549C0.993936 4.22057 0.887496 5.28379 1.09006 6.30998C1.29263 7.33617 1.7951 8.27919 2.53386 9.01969C3.27263 9.76018 4.21448 10.2648 5.2402 10.4698C6.26591 10.6748 7.32938 10.5708 8.29598 10.1711C9.26259 9.77137 10.0889 9.09386 10.6703 8.22432C11.2516 7.35478 11.562 6.3323 11.562 5.28631C11.562 3.88651 11.0067 2.54386 10.0181 1.5529C9.02945 0.561938 7.6881 0.00358248 6.2883 0.000319543V0.000319543ZM6.2883 7.81225C5.78266 7.81449 5.28787 7.66565 4.86737 7.38483C4.44688 7.10401 4.11984 6.70399 3.92818 6.23607C3.73653 5.76815 3.689 5.25366 3.79169 4.75854C3.89437 4.26343 4.1426 3.81028 4.50453 3.45717C4.86646 3.10406 5.32561 2.86711 5.82311 2.77667C6.3206 2.68624 6.83377 2.74646 7.29681 2.94961C7.75986 3.15275 8.15168 3.48957 8.42203 3.91687C8.69239 4.34417 8.82896 4.84248 8.81424 5.34792C8.79816 6.0071 8.52495 6.63387 8.05298 7.09433C7.581 7.55479 6.94768 7.81244 6.2883 7.81225V7.81225Z" fill="#FFF"></path>
<path class="group-dark-blue" d="M19.4848 39.5652C18.4388 39.5628 17.4156 39.8707 16.5447 40.4501C15.6739 41.0294 14.9944 41.8541 14.5924 42.8198C14.1905 43.7855 14.084 44.8487 14.2866 45.8749C14.4892 46.9011 14.9916 47.8441 15.7304 48.5846C16.4692 49.3251 17.411 49.8297 18.4367 50.0347C19.4624 50.2397 20.5259 50.1357 21.4925 49.736C22.4591 49.3363 23.2854 48.6588 23.8668 47.7892C24.4482 46.9197 24.7585 45.8972 24.7585 44.8512C24.7553 43.4524 24.199 42.1116 23.211 41.1214C22.2231 40.1311 20.8836 39.5717 19.4848 39.5652V39.5652ZM19.4848 47.3771C18.9794 47.3919 18.4811 47.2553 18.0538 46.9849C17.6265 46.7146 17.2897 46.3228 17.0865 45.8597C16.8834 45.3967 16.8232 44.8835 16.9136 44.386C17.004 43.8885 17.241 43.4294 17.5941 43.0674C17.9472 42.7055 18.4004 42.4573 18.8955 42.3546C19.3906 42.2519 19.9051 42.2994 20.373 42.4911C20.8409 42.6827 21.2409 43.0098 21.5217 43.4303C21.8026 43.8508 21.9514 44.3456 21.9492 44.8512C21.9494 45.5106 21.6917 46.1439 21.2312 46.6159C20.7708 47.0878 20.144 47.3611 19.4848 47.3771V47.3771Z" fill="#FFF"></path>
<path class="group-brand-blue" d="M6.86729 52.2196C5.82182 52.2196 4.79983 52.5296 3.93055 53.1104C3.06128 53.6912 2.38376 54.5168 1.98367 55.4827C1.58359 56.4486 1.47891 57.5114 1.68287 58.5368C1.88683 59.5622 2.39027 60.504 3.12953 61.2433C3.86879 61.9826 4.81066 62.486 5.83604 62.69C6.86143 62.8939 7.92426 62.7892 8.89015 62.3892C9.85604 61.9891 10.6816 61.3116 11.2624 60.4423C11.8433 59.573 12.1533 58.551 12.1533 57.5055C12.1533 56.8114 12.0166 56.124 11.7509 55.4827C11.4853 54.8414 11.0959 54.2586 10.605 53.7678C10.1142 53.2769 9.53147 52.8876 8.89015 52.6219C8.24882 52.3563 7.56146 52.2196 6.86729 52.2196V52.2196ZM6.86729 60.0315C6.36165 60.0337 5.86686 59.8849 5.44636 59.6041C5.02586 59.3232 4.69882 58.9232 4.50717 58.4553C4.31552 57.9874 4.26799 57.4729 4.37067 56.9778C4.47336 56.4827 4.72158 56.0295 5.08352 55.6764C5.44545 55.3233 5.9046 55.0863 6.40209 54.9959C6.89959 54.9055 7.41276 54.9657 7.8758 55.1688C8.33885 55.372 8.73066 55.7088 9.00102 56.1361C9.27138 56.5634 9.40795 57.0617 9.39323 57.5672C9.37714 58.2263 9.10394 58.8531 8.63196 59.3136C8.15999 59.774 7.52667 60.0317 6.86729 60.0315V60.0315Z" fill="#FFF"></path>
<path class="group-dark-blue" d="M59.1604 26.3564C58.1138 26.354 57.0902 26.6622 56.219 27.2421C55.3478 27.822 54.6684 28.6474 54.2668 29.6138C53.8652 30.5802 53.7595 31.6441 53.963 32.6706C54.1666 33.6971 54.6703 34.6401 55.4103 35.3801C56.1503 36.1201 57.0933 36.6238 58.1198 36.8274C59.1464 37.031 60.2102 36.9252 61.1766 36.5236C62.143 36.122 62.9684 35.4426 63.5483 34.5714C64.1282 33.7003 64.4365 32.6766 64.434 31.6301C64.434 30.2314 63.8784 28.89 62.8894 27.901C61.9004 26.912 60.559 26.3564 59.1604 26.3564ZM59.1604 34.1683C58.6554 34.183 58.1576 34.0468 57.7306 33.777C57.3036 33.5072 56.9668 33.1161 56.7633 32.6537C56.5598 32.1914 56.4988 31.6789 56.5883 31.1818C56.6777 30.6846 56.9134 30.2255 57.2653 29.863C57.6171 29.5006 58.0691 29.2514 58.5634 29.1474C59.0577 29.0433 59.5718 29.089 60.0399 29.2788C60.5081 29.4685 60.9089 29.7936 61.1912 30.2125C61.4736 30.6314 61.6245 31.1249 61.6247 31.6301C61.6281 32.2916 61.3719 32.928 60.9111 33.4027C60.4503 33.8773 59.8217 34.1522 59.1604 34.1683V34.1683Z" fill="#FFF"></path>
<path class="group-brand-blue" d="M59.1604 0.000395837C58.1144 -0.00204238 57.0912 0.305902 56.2203 0.885249C55.3494 1.4646 54.67 2.2893 54.268 3.25497C53.866 4.22064 53.7596 5.28386 53.9621 6.31005C54.1647 7.33625 54.6672 8.27927 55.4059 9.01976C56.1447 9.76025 57.0865 10.2649 58.1123 10.4699C59.138 10.6748 60.2014 10.5709 61.1681 10.1712C62.1347 9.77145 62.9609 9.09394 63.5423 8.2244C64.1237 7.35486 64.434 6.33238 64.434 5.28638C64.434 3.88658 63.8788 2.54394 62.8902 1.55298C61.9015 0.562014 60.5602 0.00365877 59.1604 0.000395837V0.000395837ZM59.1604 7.81232C58.6524 7.82691 58.1516 7.68867 57.7231 7.41548C57.2945 7.14228 56.9578 6.74673 56.7566 6.28003C56.5554 5.81333 56.4989 5.29697 56.5945 4.7978C56.6901 4.29864 56.9333 3.83966 57.2927 3.48029C57.652 3.12091 58.111 2.8777 58.6102 2.78213C59.1093 2.68656 59.6257 2.74304 60.0924 2.94425C60.5591 3.14546 60.9547 3.48215 61.2279 3.91071C61.501 4.33927 61.6393 4.83997 61.6247 5.34799C61.6091 5.99665 61.3444 6.61442 60.8856 7.07322C60.4268 7.53203 59.809 7.79668 59.1604 7.81232V7.81232Z" fill="#FFF"></path>
<path class="group-dark-blue" d="M59.1604 51.8622C58.1144 51.8598 57.0912 52.1677 56.2203 52.7471C55.3494 53.3264 54.67 54.1511 54.268 55.1168C53.866 56.0825 53.7596 57.1457 53.9621 58.1719C54.1647 59.1981 54.6672 60.1411 55.4059 60.8816C56.1447 61.6221 57.0865 62.1267 58.1123 62.3317C59.138 62.5367 60.2014 62.4327 61.1681 62.033C62.1347 61.6333 62.9609 60.9558 63.5423 60.0862C64.1237 59.2167 64.434 58.1942 64.434 57.1482C64.434 55.7484 63.8788 54.4058 62.8902 53.4148C61.9015 52.4238 60.5602 51.8655 59.1604 51.8622ZM59.1604 59.6741C58.6524 59.6887 58.1516 59.5505 57.7231 59.2773C57.2945 59.0041 56.9578 58.6086 56.7566 58.1419C56.5554 57.6752 56.4989 57.1588 56.5945 56.6596C56.6901 56.1605 56.9333 55.7015 57.2927 55.3421C57.652 54.9827 58.111 54.7395 58.6102 54.644C59.1093 54.5484 59.6257 54.6049 60.0924 54.8061C60.5591 55.0073 60.9547 55.344 61.2279 55.7725C61.501 56.2011 61.6393 56.7018 61.6247 57.2098C61.6091 57.8585 61.3444 58.4762 60.8856 58.9351C60.4268 59.3939 59.809 59.6585 59.1604 59.6741V59.6741Z" fill="#FFF"></path>
<path class="group-dark-blue" d="M51.3239 46.0834C51.3239 46.0094 51.3239 45.9478 51.3239 45.8739C51.4005 45.5261 51.4336 45.1702 51.4224 44.8142C51.4224 44.6417 51.4224 44.4815 51.4224 44.309C51.4224 44.1365 51.4224 44.2228 51.4224 44.1735C51.4284 44.0668 51.4284 43.9599 51.4224 43.8531V43.6683L51.3485 43.4096C51.3108 43.2676 51.2655 43.1278 51.213 42.9906C51.2179 42.9497 51.2179 42.9083 51.213 42.8674V42.7565L51.1267 42.5717C50.8703 42.0438 50.5243 41.5644 50.104 41.1547C49.8611 40.9177 49.5972 40.7032 49.3154 40.514C48.4433 39.9345 47.4176 39.6298 46.3706 39.6391C44.7693 39.4467 43.2822 38.7118 42.1566 37.5568L39.6922 35.0925C39.2741 34.6515 38.9495 34.1306 38.7377 33.561C38.526 32.9914 38.4315 32.3849 38.4601 31.7779V31.6178C38.6525 30.0165 39.3874 28.5293 40.5424 27.4037L43.0068 24.9394C43.4469 24.5201 43.9677 24.1947 44.5375 23.9829C45.1072 23.7711 45.7141 23.6773 46.3213 23.7073H46.4568H46.7525H46.5924H46.8881H47.0483L47.3317 23.6456H47.4425L48.0093 23.4731H48.1079L48.379 23.3499H48.5145L48.761 23.2021L48.8719 23.1405C49.2372 22.9164 49.5761 22.6518 49.8822 22.3519L49.9562 22.2533C50.0736 22.1275 50.1847 21.9959 50.2889 21.859L50.4367 21.6619C50.5353 21.514 50.6339 21.3661 50.7201 21.206C50.7561 21.1568 50.7851 21.1029 50.8064 21.0458C50.8753 20.9179 50.9371 20.7863 50.9912 20.6515C50.9981 20.6066 50.9981 20.5609 50.9912 20.5159L51.0651 20.3188C51.1315 20.1212 51.185 19.9195 51.2253 19.715C51.2253 19.715 51.2253 19.715 51.2253 19.715C51.3025 19.3674 51.3357 19.0113 51.3239 18.6554C51.3239 18.5075 51.3239 18.3473 51.3239 18.1995C51.3239 18.0516 51.3239 18.0886 51.3239 18.027C51.3308 17.9326 51.3308 17.8379 51.3239 17.7436V17.5464L51.2499 17.2507C51.2499 17.1521 51.2499 17.0412 51.1514 16.9427C51.1173 16.8709 51.0885 16.7968 51.0651 16.7209V16.6346L50.9912 16.4868L50.8556 16.0185L50.7201 15.7844C50.7043 15.745 50.6836 15.7078 50.6585 15.6735C50.4369 15.3031 50.1677 14.9634 49.8576 14.6632C49.6124 14.4309 49.3441 14.2245 49.0567 14.0471C48.1846 13.4676 47.1588 13.1629 46.1118 13.1722V13.1722C44.5187 12.9763 43.0405 12.2416 41.9224 11.0899L39.4581 8.62555C39.0382 8.18583 38.7124 7.66511 38.5006 7.09523C38.2887 6.52534 38.1953 5.91824 38.226 5.31103V5.18781C38.2043 3.98188 37.7708 2.81962 36.9976 1.89397C36.2244 0.968319 35.1578 0.334939 33.975 0.0989696C33.6262 0.0289856 33.271 -0.00405455 32.9153 0.000396433C31.8642 0.0123033 30.8399 0.333735 29.9705 0.92452C29.6993 1.12206 29.4438 1.3404 29.2065 1.57757C28.2315 2.56028 27.6865 3.88977 27.6909 5.27406C27.6975 5.96371 27.8402 6.64528 28.1108 7.27963C28.3815 7.91398 28.7748 8.48862 29.2681 8.97056C29.5113 9.20365 29.7752 9.41399 30.0567 9.59896C30.9304 10.211 31.9718 10.538 33.0385 10.5354C34.6423 10.7283 36.1306 11.468 37.2525 12.6301L39.7169 15.0944C40.1362 15.5346 40.4616 16.0553 40.6734 16.6251C40.8852 17.1949 40.979 17.8018 40.949 18.4089V18.4829C40.7558 20.0803 40.0209 21.5633 38.8667 22.6846L36.4024 25.1489C35.9622 25.5682 35.4414 25.8936 34.8716 26.1054C34.3019 26.3172 33.695 26.411 33.0878 26.381H32.9523C31.5603 26.3983 30.2315 26.9652 29.2558 27.9582L28.9724 28.3402L28.8738 28.4511L28.6397 28.7838L28.5042 28.9932C28.4056 29.1534 28.3194 29.3259 28.2331 29.4984L28.1222 29.7325C28.1169 29.761 28.1169 29.7903 28.1222 29.8188L28.0113 30.1022C28.0113 30.2624 27.9251 30.4102 27.8881 30.5581V30.7059C27.8181 31.0547 27.7851 31.4099 27.7895 31.7656V31.7656V31.8272C27.7895 31.9504 27.7895 32.086 27.7895 32.2092C27.7949 32.2871 27.7949 32.3654 27.7895 32.4433V32.6528C27.7838 32.743 27.7838 32.8336 27.7895 32.9238V32.9238C27.8556 33.2104 27.9463 33.4907 28.0606 33.7617C28.3722 34.3998 28.8079 34.9695 29.342 35.4375C29.5852 35.6706 29.8491 35.8809 30.1306 36.0659C30.9878 36.6504 32.001 36.9638 33.0385 36.9653V36.9653C34.6408 37.1631 36.1276 37.9021 37.2525 39.06L39.7169 41.5244C40.135 41.9653 40.4596 42.4862 40.6714 43.0558C40.8831 43.6254 40.9776 44.2319 40.949 44.8389V44.9867C40.7558 46.5842 40.0209 48.0672 38.8667 49.1884L36.4024 51.6527C35.9639 52.0744 35.4434 52.4014 34.8732 52.6134C34.303 52.8254 33.6953 52.9178 33.0878 52.8849H33.0385C31.8243 52.8913 30.6499 53.3184 29.7152 54.0935C28.7806 54.8686 28.1436 55.9438 27.9127 57.1359C27.8428 57.4847 27.8097 57.8398 27.8142 58.1955C27.8241 59.2432 28.1458 60.2641 28.7383 61.1281C28.9326 61.4057 29.1511 61.6654 29.3913 61.9044C29.8748 62.3855 30.4485 62.7665 31.0794 63.0256C31.7331 63.2896 32.4321 63.4235 33.1371 63.4199C33.8366 63.4115 34.5275 63.2649 35.1702 62.9887C35.7936 62.7114 36.3614 62.3231 36.8459 61.8428C37.079 61.5996 37.2894 61.3357 37.4743 61.0542C38.059 60.1799 38.3641 59.1486 38.3492 58.097V58.097C38.525 56.473 39.2613 54.961 40.4315 53.8214L42.8959 51.357C43.338 50.9407 43.8591 50.6171 44.4284 50.4055C44.9977 50.1939 45.6036 50.0985 46.2104 50.1249H46.3459C47.7382 50.109 49.0675 49.5418 50.0424 48.5477C50.1393 48.4466 50.2298 48.3396 50.3135 48.2273L50.3874 48.1411C50.486 48.0302 50.5599 47.907 50.6462 47.7961L50.7448 47.6359C50.8635 47.4455 50.9705 47.248 51.0651 47.0445C51.0651 47.0445 51.0651 46.9212 51.1514 46.8473C51.2376 46.7734 51.1514 46.8473 51.1514 46.7857C51.1938 46.6809 51.2308 46.574 51.2623 46.4653C51.2623 46.3421 51.2869 46.2066 51.3239 46.0834Z" fill="#000"></path>
</svg>